<svg xmlns="http://www.w3.org/2000/svg" viewBox="0 0 385.16 400">
  <title>logo_sloth-face</title>
  <g>
    <path d="M380.79,239.88l-.06-.06c-.23-.23-.44-.47-.65-.71l-.17-.18A200.34,200.34,0,0,1,350.67,197a47.41,47.41,0,0,0-25.54-22.76l-.57-.2h0l-2.17-.72h0a199.46,199.46,0,0,0-44.94-9c-1.88-.15-3.77-.29-5.67-.39l-.45,0a29.17,29.17,0,0,1-.19-58.22c.66-.06,1.32-.08,2-.08a29.18,29.18,0,0,1,7.29.92c.46.12.93.25,1.38.39a319.88,319.88,0,0,1,47.33,17.66Q343,131,356.22,138.78c2.31,1.35,4.59,2.73,6.86,4.14l1,.64a.25.25,0,0,0,.08.05,11.14,11.14,0,0,0,16.46-9.79,10.94,10.94,0,0,0-.63-3.68,1.21,1.21,0,0,0-.11-.3,194.74,194.74,0,0,0-7.75-18A200.27,200.27,0,0,0,202.73.25C199.37.09,196,0,192.58,0s-6.79.09-10.15.25A200.27,200.27,0,0,0,13,111.88a194.74,194.74,0,0,0-7.75,18,1.21,1.21,0,0,0-.11.3,10.94,10.94,0,0,0-.63,3.68A11.14,11.14,0,0,0,21,143.61a.25.25,0,0,0,.08-.05l1-.64c2.27-1.41,4.55-2.79,6.86-4.14Q42.11,131,56.06,124.53a319.88,319.88,0,0,1,47.33-17.66c.45-.14.92-.27,1.38-.39a29.18,29.18,0,0,1,7.29-.92c.67,0,1.33,0,2,.08a29.17,29.17,0,0,1-.19,58.22l-.45,0c-1.9.1-3.79.24-5.67.39a199.46,199.46,0,0,0-44.94,9h0l-2.17.72h0l-.57.2A47.41,47.41,0,0,0,34.49,197,200.34,200.34,0,0,1,5.25,238.93l-.17.18c-.21.24-.42.48-.65.71l-.06.06a18,18,0,0,0-3.8,16.24q.08.31.18.63a2.59,2.59,0,0,0,.11.37,200.07,200.07,0,0,0,383.44,0,2.59,2.59,0,0,0,.11-.37q.1-.31.18-.63a18,18,0,0,0-3.8-16.24ZM258,242.59a.61.61,0,0,1-.05.12c-12.77,26.6-31.24,29.94-53.84,48.42-.27.23-.55.45-.83.66a17.94,17.94,0,0,1-21.48,0c-.28-.21-.56-.43-.83-.66-22.6-18.48-41.07-21.82-53.84-48.42a.61.61,0,0,1,0-.12,17.91,17.91,0,0,1-1.77-7.78c0-9.11,6.78-23.63,15.56-24.79l.53-.08h.23a.3.3,0,0,0,.13,0l.55,0a0,0,0,0,0,0,0l.15,0,.77,0a17.86,17.86,0,0,1,10,3.06,18.07,18.07,0,0,1,3.22,2.76l.05.06c.2.22.39.43.57.66l.06.07a47.19,47.19,0,0,0,70.72,0l.06-.07c.18-.23.37-.44.57-.66l.05-.06a18.07,18.07,0,0,1,3.22-2.76,17.86,17.86,0,0,1,10-3.06l.77,0c.37,0,.73,0,1.09.07a6.9,6.9,0,0,0,1.3-.13c-.25.08-.51.14-.77.21,8.78,1.16,15.56,15.68,15.56,24.79A17.91,17.91,0,0,1,258,242.59Z"/>
    <g>
      <path d="M295.69,128.71c7.78,6.92,20.8,18.57,16,24s-25.61,2.51-33.39-4.41-10.2-16.91-5.39-22.31S287.91,121.79,295.69,128.71Z"/>
      <path d="M89.47,128.71c-7.78,6.92-20.8,18.57-16,24s25.61,2.51,33.39-4.41,10.2-16.91,5.39-22.31S97.25,121.79,89.47,128.71Z"/>
    </g>
  </g>
</svg>
