<svg xmlns="http://www.w3.org/2000/svg" viewBox="0 0 91 62">
  <title>Resurs 1</title>
  <path d="M90,4H83.9a5,5,0,0,0-9.8,0H65.9a5,5,0,0,0-9.8,0H47.9a5,5,0,0,0-9.8,0H29.9a5,5,0,0,0-9.8,0H1A1,1,0,0,0,0,5v5a1,1,0,0,0,1,1H20V27.36A1.65,1.65,0,0,0,21.64,29h6.72A1.65,1.65,0,0,0,30,27.36V11h8V28.91A4.09,4.09,0,0,1,33.91,33h-19A14.76,14.76,0,0,0,0,46.8,14.49,14.49,0,0,0,14.5,62H55A29,29,0,0,0,84,33V11h6a1,1,0,0,0,1-1V5A1,1,0,0,0,90,4ZM30.07,44.82l-2.34-1A2.17,2.17,0,0,0,24.89,45l-.74,1.82a2.17,2.17,0,0,0,1.18,2.84l4.6,1.89a.5.5,0,0,1,.27.68,7.56,7.56,0,0,1-6.8,4.23H14.6a7.56,7.56,0,0,1-6.8-4.23.5.5,0,0,1,.27-.68l4.6-1.89a2.17,2.17,0,0,0,1.18-2.84L13.11,45a2.17,2.17,0,0,0-2.84-1.18l-2.34,1a.51.51,0,0,1-.69-.6A7.59,7.59,0,0,1,14.6,38.5h8.8a7.59,7.59,0,0,1,7.36,5.72A.51.51,0,0,1,30.07,44.82ZM74,28.91A4.09,4.09,0,0,1,69.91,33H52.09A4.09,4.09,0,0,1,48,28.91V11h8V27.36A1.65,1.65,0,0,0,57.64,29h6.72A1.65,1.65,0,0,0,66,27.36V11h8Z"/>
</svg>
