<svg xmlns="http://www.w3.org/2000/svg" xmlns:xlink="http://www.w3.org/1999/xlink" viewBox="0 0 445 475">
  <defs>
    <style>
      .a {
        fill: url(#a);
      }

      .b {
        fill: url(#b);
      }

      .c {
        fill: url(#c);
      }

      .d {
        fill: url(#d);
      }

      .e {
        fill: url(#e);
      }

      .f {
        fill: url(#f);
      }

      .g, .k {
        fill: #fff;
      }

      .g {
        opacity: 0.36;
      }

      .h {
        fill: url(#g);
      }

      .i {
        fill: url(#h);
      }

      .j {
        fill: url(#i);
      }

      .l {
        fill: url(#j);
      }

      .m {
        fill: url(#k);
      }

      .n {
        fill: url(#l);
      }

      .o {
        fill: url(#m);
      }

      .p {
        fill: url(#n);
      }
    </style>
    <radialGradient id="a" data-name="Namnlös övertoning 26" cx="440.19" cy="684.8" r="224.96" gradientUnits="userSpaceOnUse">
      <stop offset="0.5" stop-color="#754c24"/>
      <stop offset="0.73" stop-color="#5b3617"/>
      <stop offset="1" stop-color="#42210b"/>
    </radialGradient>
    <radialGradient id="b" cx="286.11" cy="523.68" r="380.58" xlink:href="#a"/>
    <radialGradient id="c" data-name="Namnlös övertoning 51" cx="459.74" cy="643.95" fx="479.47885863482605" fy="634.0289961020211" r="217.54" gradientUnits="userSpaceOnUse">
      <stop offset="0.16" stop-color="#754c24"/>
      <stop offset="1" stop-color="#42210b"/>
    </radialGradient>
    <linearGradient id="d" data-name="Namnlös övertoning 9" x1="371.27" y1="540.66" x2="415.83" y2="568.18" gradientUnits="userSpaceOnUse">
      <stop offset="0.43" stop-color="#754c24"/>
      <stop offset="1" stop-color="#42210b"/>
    </linearGradient>
    <linearGradient id="e" data-name="Namnlös övertoning 36" x1="522.26" y1="891.59" x2="598.82" y2="891.59" gradientUnits="userSpaceOnUse">
      <stop offset="0" stop-color="#42210b"/>
      <stop offset="0.48" stop-color="#5b3617"/>
      <stop offset="0.91" stop-color="#754c24"/>
    </linearGradient>
    <radialGradient id="f" cx="528.89" cy="569.87" fx="519.0750811699622" fy="747.4619650804234" r="329.2" xlink:href="#a"/>
    <linearGradient id="g" x1="336.68" y1="560.15" x2="232.34" y2="842.3" xlink:href="#d"/>
    <radialGradient id="h" data-name="Namnlös övertoning 22" cx="309.4" cy="663.23" r="70.3" gradientUnits="userSpaceOnUse">
      <stop offset="0.43" stop-color="#fff"/>
      <stop offset="1" stop-color="#b3b3b3"/>
    </radialGradient>
    <radialGradient id="i" data-name="Namnlös övertoning 49" cx="324.25" cy="674.18" r="63.76" gradientUnits="userSpaceOnUse">
      <stop offset="0.26" stop-color="#754c24"/>
      <stop offset="0.81" stop-color="#42210b"/>
    </radialGradient>
    <radialGradient id="j" cx="948.76" cy="647.3" fx="948.7555971922393" fy="647.2973276946304" r="0.05" xlink:href="#c"/>
    <radialGradient id="k" cx="961.25" cy="598.26" fx="961.2453972510848" fy="598.2581996670124" r="2.69" xlink:href="#c"/>
    <radialGradient id="l" cx="1003.84" cy="441.06" fx="1003.8396755049234" fy="441.060527358939" r="3.1" xlink:href="#c"/>
    <radialGradient id="m" cx="948.72" cy="647.29" r="0.09" xlink:href="#a"/>
    <radialGradient id="n" cx="1065.25" cy="607.79" r="0.15" xlink:href="#a"/>
  </defs>
  <title>Namnlöst-1</title>
  <path class="a" d="M643.28,558.66c-7.2-30-16.63-63.67-28.47-102.16l-3.6.61-23.67,4-16.38,11.13-.3-.13h0l-4.74,1.8-31.25,11.86-.55.21s7.17,23.06-.86,69.18h0c-3.17,18.24-8.73,40.09-18.05,65.55l-.06.17,0,.09-.08.21A639.38,639.38,0,0,0,486.31,488l-31.78-1.74s-.75,3.29-2.31,9.15c0,0-30.91-10.41-34.52-6s-3.09,15-3.09,15c4.9,40-30,87-45.82,106-46.35-50.7-141.78-34.12-149.65,53.92-8.71,97.48,94.13,185.79,94.13,185.79C369.11,894.64,435.6,907.83,475,911.62A270.66,270.66,0,0,0,509.3,913c4.28-.39,8.37-.81,12.24-1.27l1.12-.21-.09.07c65.79-7.94,73.86-25.85,75.74-29.61,3.5-7-5.26-9.56-6.78-10,18.45-18.65,36-44.54,49.84-79.42l0-.07c10-25.18,16.62-49.95,19.18-77.9,0-.21,0-.42,0-.64q.24-2.87.45-5.68C663.82,668.5,658.49,621.9,643.28,558.66ZM474.8,911.52v0l.12.07ZM591.32,872h0l.31-.4h0Z" transform="translate(-218.31 -438.46)"/>
  <path class="b" d="M518,683.71c0,.45,0,.9,0,1.34q-.06,3.68-.16,7c0,.47,0,.94-.05,1.4,0,1.38-.1,2.72-.16,4,0,.8-.07,1.58-.11,2.35-.07,1.31-.14,2.58-.21,3.8,0,.75-.1,1.49-.15,2.2,0,.06,0,.11,0,.17q-.07,1-.15,2c0,.35-.05.68-.08,1s0,.66-.08,1-.05.64-.08.95,0,.62-.08.92c-.17,1.87-.34,3.53-.52,5,0,.21,0,.41-.07.62s0,.2,0,.3c-.11.75-.27,1.86-.47,3.26,0,.16,0,.33-.08.5a.88.88,0,0,1,0,.16c-1.32,9-4.35,27.9-7.7,37-.18.5-.82-3.14-1.47-7.43h0c-.88-5.66-1.8-12.45-1.8-12.45a252.39,252.39,0,0,1-8.87,32.9h0c-4.87,14.13-11.82,29.68-21.11,39.84.11-.47,2.1-8.47,4-16.74h0c1.82-8,3.55-16.17,3.43-18.16-.15-2.47-7.33,15.65-19.92,34.43-8.44,12.59-19.31,25.47-32.11,32.63a153.21,153.21,0,0,0,9.64-16.16l-.09.05c-.87.55-1.74,1.08-2.63,1.6,0,0,0,0,0,0-.67.41-1.36.81-2.05,1.21s-1.09.64-1.65,1l-1.28.72c-.62.35-1.25.7-1.88,1l-1.14.62c-.92.49-1.85,1-2.79,1.46s-2.16,1.1-3.26,1.64c-.59.29-1.19.59-1.79.86s-1.19.58-1.79.86c-1,.49-2.1,1-3.16,1.45-51.76,23.16-79.34,13.64-95.49-1q-1-.88-1.92-1.8a74,74,0,0,1-7-8l-.49-.65c-.43-.57-.84-1.13-1.24-1.69q-.35-.46-.66-.93c-.44-.62-.86-1.24-1.27-1.85-1.44-2.15-2.74-4.21-3.92-6.12-22.08-35.59.1-79.71,4.7-88.09.51-.92.8-1.41.8-1.41,29.52-18.83,53.87-46.22,73.64-75.86,1.52-2.27,3-4.55,4.46-6.84.65-1,1.3-2.06,1.94-3.09,36.73-58.87,56.1-123.72,62.37-147.27v0c1.56-5.86,2.31-9.15,2.31-9.15L486,488a639.38,639.38,0,0,1,28.92,133.21A541.94,541.94,0,0,1,518,683.71Z" transform="translate(-218.31 -438.46)"/>
  <path class="c" d="M570.85,472.26l-.35.24s-7,123-31,200-65,239-65,239l.22.12c-39.43-3.79-105.92-17-161.76-61.47-2.34-3.46-4.09-6-5-7.15-6-8-.08-18.88-.08-18.88.41.61.83,1.23,1.27,1.85q.31.46.66.93c.4.56.81,1.12,1.24,1.69l.49.65a74,74,0,0,0,7,8q.93.91,1.92,1.8c16.15,14.61,43.73,24.13,95.49,1,1.06-.48,2.12-1,3.16-1.45.6-.28,1.2-.56,1.79-.86s1.2-.57,1.79-.86c1.1-.54,2.19-1.08,3.26-1.64s1.87-1,2.79-1.46l1.14-.62c.63-.33,1.26-.68,1.88-1l1.28-.72c.56-.31,1.11-.63,1.65-1s1.37-.79,2.05-1.21c0,0,0,0,0,0,.89-.52,1.76-1,2.63-1.6l.09-.05a153.21,153.21,0,0,1-9.64,16.16c12.8-7.16,23.67-20,32.11-32.63,12.59-18.78,19.77-36.9,19.92-34.43.12,2-1.61,10.2-3.43,18.16h0c-1.89,8.27-3.88,16.27-4,16.74,9.29-10.16,16.24-25.71,21.11-39.84h0a252.39,252.39,0,0,0,8.87-32.9s.92,6.79,1.8,12.45h0c.65,4.29,1.29,7.93,1.47,7.43,3.35-9.15,6.38-28.06,7.7-37a.88.88,0,0,0,0-.16c.22-1.23.39-2.39.52-3.47l0-.29c0-.1,0-.2,0-.3s0-.41.07-.62c.18-1.45.35-3.11.52-5,0-.3.06-.61.08-.92s.06-.63.08-.95.06-.65.08-1,.06-.66.08-1q.07-.94.15-2c0-.06,0-.11,0-.17.05-.71.1-1.45.15-2.2.07-1.22.14-2.49.21-3.8,0-.77.08-1.55.11-2.35.06-1.29.11-2.63.16-4,0-.46,0-.93.05-1.4q.1-3.35.16-7c0-.44,0-.89,0-1.34a541.94,541.94,0,0,0-3.08-62.5L515,621l0-.09.06-.17c9.32-25.46,14.88-47.31,18-65.55h0c8-46.12.86-69.18.86-69.18l.55-.21,31.25-11.86,4.74-1.8h0Z" transform="translate(-218.31 -438.46)"/>
  <path class="d" d="M451.91,495.41v0c-6.27,23.55-25.64,88.4-62.37,147.27-.64,1-1.29,2.06-1.94,3.09q-.69-3.09-1.63-6.06a64.83,64.83,0,0,0-4.42-10.66,88.37,88.37,0,0,0-13.07-18.64c15.79-19,50.72-66,45.82-106,0,0-.52-10.59,3.09-15S451.91,495.41,451.91,495.41Z" transform="translate(-218.31 -438.46)"/>
  <path class="e" d="M598,882c-1.88,3.76-10,21.67-75.74,29.61l.13-.09c10.64-7.21,47.91-32.2,64.11-39l4.83-.92L591,872l.2,0C592.67,872.42,601.51,875,598,882Z" transform="translate(-218.31 -438.46)"/>
  <path class="f" d="M474.49,911.52s41-162,65-239,31-200,31-200l.35-.24,16.38-11.13,23.67-4,3.6-.61C626.34,495,635.77,528.69,643,558.66c15.21,63.24,20.54,109.84,17.8,149.68q-.21,2.82-.45,5.68c0,.22,0,.43-.05.64-2.56,28-9.17,52.72-19.18,77.9l0,.07c-13.87,34.89-31.4,60.79-49.86,79.44L591,872l.33-.42-4.83.92c-16.2,6.82-53.48,31.81-64.12,39l-1.15.21c-3.87.46-8,.88-12.24,1.27a270.66,270.66,0,0,1-34.27-1.4" transform="translate(-218.31 -438.46)"/>
  <g>
    <rect class="g" x="452.75" y="838.44" width="5.72" height="25.34" rx="2.86" transform="translate(192.38 -551.69) rotate(25.49)"/>
    <rect class="g" x="468.29" y="835.99" width="5.72" height="25.34" rx="2.86" transform="translate(192.84 -558.62) rotate(25.49)"/>
    <rect class="g" x="451.12" y="867.05" width="5.72" height="13.92" rx="2.86" transform="translate(269.27 1419.85) rotate(-154.51)"/>
    <rect class="g" x="431.53" y="867.53" width="5.72" height="13.92" rx="2.86" transform="translate(231.79 1412.35) rotate(-154.51)"/>
  </g>
  <path class="h" d="M309.5,728.5s-30,50-5.5,89.5c1.18,1.91,2.48,4,3.92,6.12,0,0-5.92,10.88.08,18.88.87,1.17,2.62,3.69,5,7.15,0,0-102.84-88.31-94.13-185.79,7.87-88,103.3-104.62,149.65-53.92a88.37,88.37,0,0,1,13.07,18.64A64.83,64.83,0,0,1,386,639.74q.94,3,1.63,6.06C367.07,678,341.28,708.23,309.5,728.5Z" transform="translate(-218.31 -438.46)"/>
  <path class="i" d="M383.14,652.64c-19.77,29.64-44.12,57-73.64,75.86,0,0-.29.49-.8,1.41-46.06.18-55.14-16.38-55.14-16.38S246,693,267.71,670.1s8.93-33.72,8.93-33.72c-23.08-14.83-38.24,42.45-38.24,42.45-14-42,29.6-68.64,40.09-75.47,12-7.84,31.5-8.61,54.25-3.9s32.67,15.69,32.67,15.69c-8.76-5-39.92-2.86-40.43,5.06s9.94,11.45,14.15,12.29,33.35,1.18,37.56,2.53C380.48,636.24,382.22,642.88,383.14,652.64Z" transform="translate(-218.31 -438.46)"/>
  <path d="M329.24,647.74a18.8,18.8,0,1,1-.14-2.23A16.49,16.49,0,0,1,329.24,647.74Z" transform="translate(-218.31 -438.46)"/>
  <path class="j" d="M330.86,693.15c-8.57,4.2-40.24-9.54-40.24-9.54s-11-3.39-5.82-13.51c2.31-4.52,8.62-6.37,14.89-7a18.74,18.74,0,0,0,29.55-15.32,16.49,16.49,0,0,0-.14-2.23c8-4.06,19.51-8.12,20.66,1.26C351.54,661.32,339.42,689,330.86,693.15Z" transform="translate(-218.31 -438.46)"/>
  <path d="M350.34,643.5c-.24,1.92-2.94,3.2-6.22,3a55.08,55.08,0,0,1-15.49,28.65c-11.23,11.05-32.61,3.06-38.31.64-1.72,3.08-3.92,5-5.26,4.37-1.56-.69-1.39-4.48.38-8.45s4.47-6.63,6-5.93c1.22.54,1.38,3,.55,5.9,6.35,2.91,25.43,5.18,34.13-1.07s12.34-21.87,13.1-25.47c-1.48-.89-2.35-2.1-2.2-3.32.26-2.08,3.44-3.41,7.11-3S350.6,641.42,350.34,643.5Z" transform="translate(-218.31 -438.46)"/>
  <g>
    <path d="M265,645.8c-6.83.77-17,26.83-5.37,19.23s11.95-14.7,9.53-17.29A5.07,5.07,0,0,0,265,645.8Z" transform="translate(-218.31 -438.46)"/>
    <path d="M345.09,619.6c3.93,1.13,10.41,3.18,9.85,6.09s-3.47,5.63-11.16,4-8.63-2.62-8.44-5.25S340.07,618.15,345.09,619.6Z" transform="translate(-218.31 -438.46)"/>
    <circle class="k" cx="121.63" cy="184.6" r="2.06"/>
    <circle class="k" cx="44.83" cy="213.54" r="2.06"/>
  </g>
  <path class="l" d="M948.81,647.34l-.13-.05v0Z" transform="translate(-218.31 -438.46)"/>
  <path class="m" d="M960.37,601.79l1.5-5.8Z" transform="translate(-218.31 -438.46)"/>
  <path class="n" d="M1002.72,445.11c.64-2.25,1.28-4.46,1.92-6.65Q1003.68,441.75,1002.72,445.11Z" transform="translate(-218.31 -438.46)"/>
  <path class="o" d="M948.81,647.34l-.13-.05v0Z" transform="translate(-218.31 -438.46)"/>
  <path class="p" d="M1065.41,607.82l0,0-.2-.05v0l.19.05Z" transform="translate(-218.31 -438.46)"/>
</svg>
